<svg xmlns="http://www.w3.org/2000/svg" xmlns:xlink="http://www.w3.org/1999/xlink" version="1.1" width="339.5" height="254.5" viewBox="0.5 0 339.5 254.5">
  <!-- Exported by Scratch - http://scratch.mit.edu/ -->
  <path id="ID0.24206141056492925" fill="#000000" stroke="#000000" stroke-width="15" d="M 8 7.5 L 318.5 7.5 L 318.5 189.5 L 8 189.5 L 8 7.5 Z "/>
  <path id="ID0.8698393935337663" fill="none" stroke="#000000" stroke-width="15" d="M 8 178.5 L 60.5 178.5 L 60.5 182 L 8 182 L 8 178.5 Z "/>
  <path id="ID0.6847456134855747" fill="none" stroke="#000000" stroke-width="15" d="M 8 175 L 41.5 175 L 41.5 180 L 8 180 L 8 175 Z "/>
  <path id="ID0.6688415803946555" fill="none" stroke="#000000" stroke-width="15" d="M 229 7.5 L 331 7.5 L 331 186 L 229 186 L 229 7.5 Z "/>
  <path id="ID0.46571859810501337" fill="none" stroke="#000000" stroke-width="15" d="M 8 141 L 246 141 L 246 219 L 8 219 L 8 141 Z "/>
  <path id="ID0.22570875706151128" fill="none" stroke="#000000" stroke-width="15" d="M 226 238 L 227 238 L 227 238.5 L 226 238.5 L 226 238 Z "/>
  <path id="ID0.15412398986518383" fill="#000000" stroke="#000000" stroke-width="15" d="M 8 147 L 241 147 L 241 247 L 8 247 L 8 147 Z "/>
  <path id="ID0.016368802171200514" fill="#000000" stroke="#000000" stroke-width="15" d="M 243.5 171.5 L 332.5 171.5 L 332.5 246.5 L 243.5 246.5 L 243.5 171.5 Z "/>
  <text id="ID0.8361131171695888" fill="#FF0000" text-anchor="start" font-family="Sans Serif" font-size="22" transform="matrix(1.18202 0 0 1.19637 12.114 109.661)" stroke-width="1" alignment-baseline="text-before-edge" xml:space="preserve"><tspan x="0" style="white-space: pre" dy="1.13em">The computer is infected,</tspan><tspan x="0" style="white-space: pre" dy="1.13em">   the virus is still alive!</tspan><tspan x="0" style="white-space: pre" dy="1.13em">         </tspan><tspan x="0" style="white-space: pre" dy="1.13em">       Press R to repair</tspan></text>
</svg>